<?xml version="1.0" standalone="no"?>
<!DOCTYPE svg PUBLIC "-//W3C//DTD SVG 20010904//EN"
 "http://www.w3.org/TR/2001/REC-SVG-20010904/DTD/svg10.dtd">
<svg version="1.0" xmlns="http://www.w3.org/2000/svg"
 width="700.000000pt" height="700.000000pt" viewBox="0 0 700.000000 700.000000"
 preserveAspectRatio="xMidYMid meet">
<metadata>
Created by potrace 1.14, written by Peter Selinger 2001-2017
</metadata>
<g transform="translate(0.000000,700.000000) scale(0.100000,-0.100000)"
fill="#000000" stroke="none">
<path d="M568 6653 c-2 -5 -4 -703 -3 -1553 l1 -1545 564 0 565 0 0 1553 1
1552 -562 0 c-310 0 -564 -3 -566 -7z"/>
<path d="M2829 6648 c0 -7 -1 -706 -1 -1554 l-1 -1540 -564 0 c-309 1 -563 -1
-564 -4 -1 -3 -2 -701 -3 -1553 -1 -1541 -1 -1547 19 -1548 62 -3 1083 -4
1096 -1 14 3 16 147 16 1548 0 849 3 1547 7 1551 4 4 258 7 564 8 l557 0 1
1553 1 1552 -563 0 c-444 0 -564 -3 -565 -12z"/>
<path d="M5083 5107 l0 -1553 556 1 c306 1 561 3 566 3 7 1 10 525 10 1550
l-1 1547 -565 3 -566 2 0 -1553z"/>
<path d="M3968 3552 c-15 -3 -16 -140 -16 -1555 l0 -1552 556 2 c307 0 562 2
567 2 11 1 13 3087 1 3098 -6 7 -1075 11 -1108 5z"/>
</g>
</svg>
